<svg viewBox="0 0 219 43" xmlns="http://www.w3.org/2000/svg" data-logo="logo">
        <g transform="translate(0, 1) rotate(0)" id="logogram" style="opacity: 1;"><path fill="#FFFFFF" d="M37.8473 40.43C44.2801 40.2989 49.4526 35.0373 49.4526 28.5688C49.4526 25.4231 48.2038 22.4061 45.9809 20.1818L26.2421 0.429993V12.707C26.2421 14.7603 27.0573 16.7295 28.5082 18.1814L33.1321 22.8084L33.1448 22.8207L40.8979 30.5789C41.1497 30.8309 41.1497 31.2394 40.8979 31.4913C40.6461 31.7433 40.2379 31.7433 39.9861 31.4913L37.3136 28.8171H12.5917L9.91919 31.4913C9.6674 31.7433 9.25918 31.7433 9.00739 31.4913C8.75561 31.2394 8.75561 30.8309 9.00739 30.5789L16.7605 22.8207L16.7732 22.8084L21.3971 18.1814C22.848 16.7295 23.6631 14.7603 23.6631 12.707V0.429993L3.92439 20.1818C1.70146 22.4061 0.452637 25.4231 0.452637 28.5688C0.452637 35.0373 5.62516 40.2989 12.058 40.43H37.8473Z"></path></g>
        <g transform="translate(56, 8.5)" id="logotype" style="opacity: 1;"><path d="M17.25 26L17.25 26L10.67 26L10.67 21.51L17.01 21.51Q19.47 21.51 21.13 20.63Q22.80 19.76 23.64 17.93Q24.47 16.10 24.47 13.25L24.47 13.25Q24.47 10.41 23.63 8.59Q22.78 6.77 21.13 5.90Q19.48 5.03 17.04 5.03L17.04 5.03L10.55 5.03L10.55 0.54L17.35 0.54Q21.18 0.54 23.94 2.07Q26.70 3.60 28.18 6.44Q29.67 9.29 29.67 13.25L29.67 13.25Q29.67 17.23 28.18 20.09Q26.70 22.94 23.91 24.47Q21.12 26 17.25 26ZM8.31 0.54L13.52 0.54L13.52 26L8.31 26L8.31 0.54ZM39.82 26.38L39.82 26.38Q36.90 26.38 34.78 25.18Q32.66 23.98 31.52 21.78Q30.39 19.57 30.39 16.55L30.39 16.55Q30.39 13.59 31.51 11.37Q32.64 9.15 34.71 7.90Q36.78 6.65 39.56 6.65L39.56 6.65Q41.44 6.65 43.07 7.25Q44.69 7.85 45.92 9.06Q47.15 10.26 47.84 12.07Q48.53 13.88 48.53 16.34L48.53 16.34L48.53 17.78L32.49 17.78L32.49 14.57L46.02 14.57L43.63 15.42Q43.63 13.93 43.18 12.83Q42.72 11.73 41.83 11.12Q40.93 10.52 39.60 10.52L39.60 10.52Q38.28 10.52 37.35 11.13Q36.42 11.75 35.94 12.80Q35.46 13.85 35.46 15.20L35.46 15.20L35.46 17.47Q35.46 19.13 36.02 20.26Q36.57 21.39 37.57 21.95Q38.57 22.51 39.90 22.51L39.90 22.51Q40.81 22.51 41.54 22.26Q42.28 22.00 42.80 21.50Q43.32 20.99 43.60 20.26L43.60 20.26L48.24 21.13Q47.78 22.70 46.64 23.89Q45.49 25.08 43.78 25.73Q42.06 26.38 39.82 26.38ZM60.97 26L55.15 26L48.11 6.89L53.56 6.89L56.77 16.81Q57.35 18.67 57.79 20.57Q58.22 22.46 58.68 24.50L58.68 24.50L57.59 24.50Q58.03 22.46 58.46 20.57Q58.89 18.67 59.47 16.81L59.47 16.81L62.65 6.89L68.03 6.89L60.97 26ZM79.72 26.34L79.72 26.34Q76.34 26.34 73.66 24.80Q70.99 23.27 69.44 20.34Q67.89 17.42 67.89 13.29L67.89 13.29Q67.89 9.13 69.45 6.20Q71.00 3.27 73.69 1.73Q76.37 0.19 79.72 0.19L79.72 0.19Q81.89 0.19 83.76 0.80Q85.63 1.41 87.09 2.57Q88.54 3.73 89.46 5.42Q90.38 7.10 90.67 9.23L90.67 9.23L85.39 9.23Q85.22 8.19 84.74 7.38Q84.25 6.57 83.52 6.00Q82.80 5.42 81.86 5.12Q80.92 4.83 79.82 4.83L79.82 4.83Q77.84 4.83 76.34 5.82Q74.83 6.81 74.01 8.70Q73.19 10.58 73.19 13.29L73.19 13.29Q73.19 16.04 74.03 17.92Q74.87 19.80 76.35 20.75Q77.84 21.71 79.80 21.71L79.80 21.71Q80.90 21.71 81.83 21.41Q82.76 21.11 83.50 20.54Q84.25 19.97 84.74 19.15Q85.22 18.33 85.41 17.30L85.41 17.30L90.69 17.30Q90.49 19.06 89.64 20.69Q88.79 22.31 87.39 23.59Q85.99 24.87 84.06 25.61Q82.13 26.34 79.72 26.34ZM100.64 26.38L100.64 26.38Q97.76 26.38 95.66 25.14Q93.56 23.90 92.42 21.68Q91.29 19.47 91.29 16.53L91.29 16.53Q91.29 13.56 92.42 11.35Q93.56 9.13 95.66 7.89Q97.76 6.65 100.64 6.65L100.64 6.65Q103.52 6.65 105.62 7.89Q107.71 9.13 108.85 11.35Q109.98 13.56 109.98 16.53L109.98 16.53Q109.98 19.47 108.85 21.68Q107.71 23.90 105.62 25.14Q103.52 26.38 100.64 26.38ZM100.64 22.34L100.64 22.34Q102.00 22.34 102.93 21.58Q103.85 20.82 104.31 19.50Q104.77 18.17 104.77 16.52L104.77 16.52Q104.77 14.82 104.31 13.51Q103.85 12.19 102.93 11.44Q102.00 10.69 100.64 10.69L100.64 10.69Q99.27 10.69 98.35 11.44Q97.44 12.19 96.98 13.51Q96.52 14.82 96.52 16.52L96.52 16.52Q96.52 18.17 96.98 19.50Q97.44 20.82 98.35 21.58Q99.27 22.34 100.64 22.34ZM111.28 0.54L116.41 0.54L116.41 26L111.28 26L111.28 0.54ZM118.49 0.54L123.62 0.54L123.62 26L118.49 26L118.49 0.54ZM131.03 26.38L131.03 26.38Q129.22 26.38 127.78 25.74Q126.33 25.09 125.50 23.82Q124.67 22.55 124.67 20.65L124.67 20.65Q124.67 19.06 125.26 17.98Q125.85 16.91 126.87 16.26Q127.89 15.61 129.18 15.27Q130.47 14.93 131.89 14.79L131.89 14.79Q133.54 14.62 134.56 14.47Q135.58 14.33 136.05 14.01Q136.52 13.70 136.52 13.08L136.52 13.08L136.52 12.99Q136.52 12.17 136.18 11.61Q135.83 11.05 135.17 10.75Q134.50 10.45 133.53 10.45L133.53 10.45Q132.54 10.45 131.80 10.75Q131.07 11.05 130.60 11.54Q130.14 12.04 129.92 12.65L129.92 12.65L125.22 11.87Q125.72 10.21 126.86 9.05Q128.01 7.88 129.71 7.27Q131.41 6.65 133.53 6.65L133.53 6.65Q135.08 6.65 136.53 7.02Q137.99 7.39 139.14 8.16Q140.29 8.93 140.97 10.16Q141.64 11.39 141.64 13.13L141.64 13.13L141.64 26L136.79 26L136.79 23.35L136.62 23.35Q136.16 24.24 135.39 24.91Q134.62 25.59 133.54 25.98Q132.45 26.38 131.03 26.38ZM132.48 22.77L132.48 22.77Q133.70 22.77 134.61 22.29Q135.53 21.81 136.04 20.99Q136.55 20.17 136.55 19.16L136.55 19.16L136.55 17.10Q136.33 17.27 135.87 17.40Q135.41 17.54 134.84 17.64Q134.28 17.75 133.73 17.83Q133.19 17.92 132.76 17.97L132.76 17.97Q131.82 18.10 131.10 18.41Q130.38 18.72 129.99 19.22Q129.60 19.73 129.60 20.51L129.60 20.51Q129.60 21.25 129.97 21.75Q130.35 22.26 130.99 22.51Q131.63 22.77 132.48 22.77ZM154.44 26.32L154.44 26.32Q152.89 26.32 151.81 25.79Q150.73 25.27 150.06 24.49Q149.38 23.71 149.03 22.94L149.03 22.94L148.79 22.94L148.79 26L143.74 26L143.74 0.54L148.87 0.54L148.87 10.11L149.03 10.11Q149.38 9.35 150.04 8.55Q150.70 7.75 151.78 7.20Q152.85 6.65 154.48 6.65L154.48 6.65Q156.60 6.65 158.36 7.75Q160.12 8.84 161.17 11.03Q162.22 13.22 162.22 16.48L162.22 16.48Q162.22 19.66 161.19 21.86Q160.17 24.05 158.41 25.19Q156.65 26.32 154.44 26.32ZM152.87 22.21L152.87 22.21Q154.20 22.21 155.12 21.47Q156.03 20.74 156.50 19.44Q156.97 18.14 156.97 16.46L156.97 16.46Q156.97 14.79 156.50 13.51Q156.03 12.23 155.13 11.49Q154.22 10.76 152.87 10.76L152.87 10.76Q151.55 10.76 150.63 11.47Q149.71 12.17 149.23 13.45Q148.75 14.72 148.75 16.46L148.75 16.46Q148.75 18.19 149.24 19.48Q149.73 20.77 150.65 21.49Q151.57 22.21 152.87 22.21Z" fill="#ffffff"></path></g>
        
      </svg>