<svg width="180" height="36" viewBox="0 0 180 36" fill="none" xmlns="http://www.w3.org/2000/svg">
<path d="M31.1074 33.9534C36.3946 33.8459 40.646 29.5338 40.646 24.2327C40.646 21.6547 39.6196 19.1821 37.7926 17.3592L21.5689 1.17193V11.2334C21.5689 12.9161 22.2389 14.53 23.4314 15.7198L27.2319 19.5118L27.2423 19.5219L33.6148 25.88C33.8217 26.0866 33.8217 26.4213 33.6148 26.6278C33.4078 26.8343 33.0723 26.8343 32.8653 26.6278L30.6688 24.4362H10.3494L8.1528 26.6278C7.94585 26.8343 7.61033 26.8343 7.40337 26.6278C7.19643 26.4213 7.19643 26.0866 7.40337 25.88L13.7758 19.5219L13.7862 19.5118L17.5867 15.7198C18.7792 14.53 19.4492 12.9161 19.4492 11.2334V1.17193L3.22557 17.3592C1.3985 19.1821 0.37207 21.6547 0.37207 24.2327C0.37207 29.5338 4.62346 33.8459 9.91072 33.9534H31.1074Z" fill="#7D0FF2"/>
<path d="M60.2054 28.274H54.7971V24.5943H60.0081C61.3561 24.5943 62.4848 24.3539 63.3944 23.8731C64.3095 23.3977 64.9971 22.6602 65.4574 21.6603C65.9122 20.6605 66.1396 19.382 66.1396 17.8249C66.1396 16.2732 65.9095 15.0002 65.4492 14.0059C64.9834 13.0115 64.2985 12.2766 63.3944 11.8013C62.4903 11.326 61.3698 11.0883 60.0328 11.0883H54.6985V7.4086H60.2876C62.3862 7.4086 64.1917 7.82656 65.704 8.66249C67.2163 9.49841 68.378 10.6922 69.1889 12.2439C70.0054 13.801 70.4136 15.6613 70.4136 17.8249C70.4136 19.9994 70.0054 21.8679 69.1889 23.4305C68.378 24.9876 67.2081 26.1842 65.6793 27.0201C64.1506 27.856 62.3259 28.274 60.2054 28.274ZM52.8574 7.4086H57.1396V28.274H52.8574V7.4086ZM78.7561 28.5854C77.1561 28.5854 75.7752 28.2576 74.6136 27.602C73.4519 26.9463 72.5588 26.0175 71.9341 24.8155C71.315 23.6081 71.0054 22.1794 71.0054 20.5294C71.0054 18.9121 71.3122 17.4971 71.9259 16.2842C72.5451 15.0713 73.4218 14.1233 74.5561 13.4404C75.6903 12.7574 77.0191 12.416 78.5424 12.416C79.5725 12.416 80.5341 12.5799 81.4273 12.9077C82.315 13.2355 83.0958 13.7299 83.7697 14.391C84.4437 15.0467 84.9697 15.8689 85.3478 16.8578C85.7259 17.8467 85.915 19.0132 85.915 20.3573V21.5374H72.7314V18.9067H83.8519L81.8876 19.6033C81.8876 18.7892 81.7643 18.0817 81.5177 17.4807C81.2656 16.8797 80.8958 16.4126 80.4081 16.0793C79.915 15.7515 79.304 15.5876 78.5752 15.5876C77.8519 15.5876 77.2355 15.7542 76.7259 16.0875C76.2163 16.4262 75.83 16.8824 75.567 17.4561C75.304 18.0298 75.1725 18.6854 75.1725 19.423V21.2833C75.1725 22.1903 75.3259 22.9525 75.6328 23.5698C75.9341 24.1872 76.3588 24.6489 76.9067 24.9549C77.4547 25.2608 78.093 25.4138 78.8218 25.4138C79.3204 25.4138 79.7698 25.3455 80.1698 25.2089C80.5752 25.0669 80.9204 24.8592 81.2054 24.5861C81.4903 24.3074 81.7095 23.9687 81.8629 23.5698L85.6766 24.2828C85.4245 25.1406 84.9862 25.8946 84.3615 26.5448C83.7314 27.1949 82.9478 27.6976 82.0108 28.0527C81.0684 28.4078 79.9834 28.5854 78.7561 28.5854ZM96.1396 28.274H91.3561L85.5698 12.6126H90.0492L92.6876 20.7424C93.0054 21.7587 93.2848 22.7858 93.5259 23.8239C93.7615 24.8565 94.0054 25.9301 94.2574 27.0447H93.3615C93.6026 25.9301 93.841 24.8565 94.0766 23.8239C94.3122 22.7858 94.5889 21.7587 94.9067 20.7424L97.5204 12.6126H101.942L96.1396 28.274ZM111.551 28.5526C109.699 28.5526 108.038 28.1319 106.57 27.2905C105.107 26.4546 103.951 25.2362 103.101 23.6354C102.252 22.04 101.827 20.1141 101.827 17.8577C101.827 15.5848 102.255 13.648 103.109 12.0472C103.959 10.4463 105.12 9.22524 106.594 8.38385C108.063 7.54246 109.715 7.12176 111.551 7.12176C112.74 7.12176 113.846 7.2884 114.871 7.62168C115.896 7.95496 116.808 8.43848 117.608 9.07226C118.403 9.70603 119.052 10.4846 119.556 11.4079C120.06 12.3258 120.392 13.3666 120.551 14.5304H116.211C116.118 13.9622 115.94 13.4568 115.677 13.0142C115.408 12.5717 115.074 12.1947 114.674 11.8833C114.279 11.5664 113.825 11.326 113.309 11.1621C112.794 11.0036 112.236 10.9244 111.633 10.9244C110.548 10.9244 109.594 11.1949 108.772 11.7357C107.945 12.2766 107.307 13.0634 106.857 14.096C106.408 15.1232 106.183 16.377 106.183 17.8577C106.183 19.3602 106.414 20.625 106.874 21.6521C107.334 22.6793 107.97 23.4524 108.781 23.9714C109.597 24.4959 110.542 24.7582 111.616 24.7582C112.219 24.7582 112.775 24.6762 113.285 24.5123C113.794 24.3484 114.252 24.1107 114.657 23.7993C115.068 23.4879 115.408 23.1082 115.677 22.6602C115.94 22.2121 116.123 21.7068 116.227 21.144H120.567C120.457 22.1056 120.17 23.0317 119.704 23.9222C119.238 24.8073 118.622 25.5996 117.855 26.2989C117.088 26.9982 116.175 27.55 115.118 27.9544C114.06 28.3532 112.871 28.5526 111.551 28.5526ZM128.745 28.5854C127.167 28.5854 125.803 28.2467 124.652 27.5692C123.501 26.8917 122.614 25.9465 121.989 24.7336C121.37 23.5261 121.06 22.1193 121.06 20.513C121.06 18.8903 121.37 17.4752 121.989 16.2678C122.614 15.0549 123.501 14.1097 124.652 13.4322C125.803 12.7547 127.167 12.416 128.745 12.416C130.323 12.416 131.688 12.7547 132.838 13.4322C133.983 14.1097 134.868 15.0549 135.493 16.2678C136.112 17.4752 136.422 18.8903 136.422 20.513C136.422 22.1193 136.112 23.5261 135.493 24.7336C134.868 25.9465 133.983 26.8917 132.838 27.5692C131.688 28.2467 130.323 28.5854 128.745 28.5854ZM128.745 25.2745C129.49 25.2745 130.118 25.0669 130.627 24.6516C131.131 24.2364 131.509 23.6682 131.762 22.947C132.014 22.2203 132.14 21.4063 132.14 20.5048C132.14 19.576 132.014 18.7537 131.762 18.038C131.509 17.3168 131.131 16.7513 130.627 16.3415C130.118 15.9318 129.49 15.7269 128.745 15.7269C127.994 15.7269 127.367 15.9318 126.863 16.3415C126.364 16.7513 125.989 17.3168 125.737 18.038C125.485 18.7537 125.359 19.576 125.359 20.5048C125.359 21.4063 125.485 22.2203 125.737 22.947C125.989 23.6682 126.364 24.2364 126.863 24.6516C127.367 25.0669 127.994 25.2745 128.745 25.2745ZM137.49 7.4086H141.707V28.274H137.49V7.4086ZM143.416 7.4086H147.633V28.274H143.416V7.4086ZM153.723 28.5854C152.731 28.5854 151.841 28.4106 151.052 28.0609C150.257 27.7058 149.633 27.1813 149.178 26.4874C148.723 25.7935 148.496 24.9275 148.496 23.8895C148.496 23.0207 148.657 22.2914 148.981 21.7013C149.304 21.1167 149.745 20.6468 150.304 20.2917C150.863 19.9366 151.496 19.6661 152.203 19.4804C152.909 19.2946 153.652 19.1635 154.43 19.087C155.334 18.9941 156.066 18.9067 156.625 18.8247C157.183 18.7482 157.592 18.6226 157.849 18.4477C158.107 18.2784 158.236 18.0243 158.236 17.6856V17.6118C158.236 17.1638 158.142 16.7868 157.956 16.4809C157.764 16.1749 157.488 15.94 157.126 15.7761C156.759 15.6121 156.309 15.5302 155.778 15.5302C155.236 15.5302 154.762 15.6121 154.356 15.7761C153.956 15.94 153.627 16.1558 153.37 16.4235C153.118 16.6967 152.931 16.9999 152.811 17.3332L148.948 16.6939C149.222 15.787 149.671 15.0166 150.296 14.3828C150.926 13.7436 151.707 13.2573 152.638 12.9241C153.57 12.5853 154.616 12.416 155.778 12.416C156.627 12.416 157.449 12.517 158.244 12.7192C159.044 12.9213 159.759 13.2328 160.389 13.6535C161.019 14.0742 161.52 14.6205 161.893 15.2925C162.26 15.9645 162.444 16.7759 162.444 17.7266V28.274H158.457V26.1022H158.318C158.066 26.5885 157.729 27.0146 157.307 27.3807C156.885 27.7522 156.378 28.0445 155.786 28.2576C155.189 28.4761 154.501 28.5854 153.723 28.5854ZM154.915 25.6269C155.583 25.6269 156.167 25.4957 156.666 25.2335C157.17 24.9712 157.562 24.6161 157.841 24.1681C158.12 23.7201 158.26 23.2202 158.26 22.6683V20.9801C158.14 21.073 157.953 21.1549 157.701 21.226C157.449 21.3025 157.167 21.368 156.855 21.4227C156.548 21.4828 156.244 21.5347 155.942 21.5784C155.646 21.6275 155.381 21.6658 155.145 21.6931C154.63 21.7641 154.175 21.8843 153.781 22.0537C153.386 22.2231 153.082 22.4443 152.868 22.7175C152.655 22.9962 152.548 23.3486 152.548 23.7747C152.548 24.179 152.649 24.5178 152.852 24.7909C153.06 25.0696 153.34 25.2772 153.69 25.4138C154.041 25.5558 154.449 25.6269 154.915 25.6269ZM172.964 28.5362C172.115 28.5362 171.394 28.3914 170.803 28.1019C170.211 27.8178 169.731 27.4626 169.364 27.0365C168.992 26.6103 168.709 26.1869 168.518 25.7662H168.32V28.274H164.17V7.4086H168.386V15.2516H168.518C168.709 14.8363 168.986 14.4102 169.348 13.9731C169.709 13.536 170.186 13.1672 170.778 12.8667C171.364 12.5662 172.104 12.416 172.997 12.416C174.159 12.416 175.222 12.7165 176.186 13.3174C177.151 13.913 177.92 14.809 178.496 16.0055C179.071 17.202 179.359 18.6909 179.359 20.472C179.359 22.2094 179.077 23.6791 178.512 24.8811C177.953 26.0776 177.192 26.9873 176.227 27.6101C175.263 28.2275 174.175 28.5362 172.964 28.5362ZM171.674 25.1679C172.403 25.1679 173.019 24.9658 173.523 24.5615C174.022 24.1626 174.4 23.6081 174.657 22.8978C174.915 22.1876 175.044 21.3735 175.044 20.4556C175.044 19.5432 174.915 18.7373 174.657 18.038C174.4 17.3386 174.025 16.7868 173.531 16.3825C173.033 15.9837 172.414 15.7843 171.674 15.7843C170.951 15.7843 170.337 15.9782 169.833 16.3661C169.329 16.7486 168.945 17.2895 168.682 17.9888C168.419 18.6827 168.288 19.5049 168.288 20.4556C168.288 21.4008 168.422 22.2258 168.69 22.9306C168.959 23.6354 169.345 24.1845 169.849 24.5779C170.353 24.9712 170.962 25.1679 171.674 25.1679Z" fill="#7D0FF2"/>
</svg>
